<svg width="155" height="78" viewBox="0 0 155 78" fill="none" xmlns="http://www.w3.org/2000/svg">
<g id="logo-mt-black (1) 1" clip-path="url(#clip0_29_113)">
<g id="Page-1">
<g id="home-desk-PROMO-V1">
<g id="logo-mt-black-(1)">
<path id="Combined-Shape" d="M85.4793 56.9897C87.2289 56.9897 88.6544 58.4528 88.6544 60.2485H91.4084C91.4084 56.8899 88.7517 54.1631 85.4793 54.1631C82.207 54.1631 79.5503 56.8899 79.5503 60.2485V71.056C79.5503 74.4146 82.207 77.1414 85.4793 77.1414C88.7517 77.1414 91.4084 74.4146 91.4084 71.056H88.6544C88.6544 72.8517 87.2289 74.3148 85.4793 74.3148C83.7298 74.3148 82.3042 72.8517 82.3042 71.056V60.2485C82.3042 58.4528 83.7298 56.9897 85.4793 56.9897ZM99.8646 56.9897C101.614 56.9897 103.04 58.4528 103.04 60.2485H105.794C105.794 56.8899 103.137 54.1631 99.8646 54.1631C96.5923 54.1631 93.9355 56.8899 93.9355 60.2485V71.056C93.9355 74.4146 96.5923 77.1414 99.8646 77.1414C103.137 77.1414 105.794 74.4146 105.794 71.056H103.04C103.04 72.8517 101.614 74.3148 99.8646 74.3148C98.115 74.3148 96.6895 72.8517 96.6895 71.056V60.2485C96.6895 58.4528 98.115 56.9897 99.8646 56.9897ZM117.797 54.9838V64.5788H111.832V54.9838H109.074V77.1414H111.832V67.2826H117.797V77.1414H120.556V54.9838H117.797ZM22.963 54.9838V57.7164H27.3169V77.1414H30.0905V57.7164H34.4444V54.9838H22.963ZM125.476 54.9838H127.937V77.1414H125.476V54.9838ZM58.4504 63.5694C57.8152 64.1968 56.9461 64.6592 56.0101 64.6592H52.9013V57.7906H56.0435C56.9461 57.7906 57.8152 58.1539 58.4838 58.7813C59.1189 59.4087 59.4866 60.2673 59.4866 61.1919C59.4866 62.1165 59.1189 62.942 58.4504 63.5694ZM58.4504 73.3439C57.8152 73.9713 56.9461 74.3345 56.0101 74.3345H52.9013V67.499H56.0435C56.9461 67.499 57.8152 67.9283 58.4838 68.5557C59.1189 69.1831 59.4866 70.0417 59.4866 70.9663C59.4866 71.8909 59.1189 72.6835 58.4504 73.3439ZM62.328 61.1919C62.328 57.7576 59.5201 54.9838 56.0435 54.9838H50.0265V77.1414H56.0435C59.5201 77.1414 62.328 74.3676 62.328 70.9333C62.328 68.952 61.3921 67.2018 59.9212 66.0461C61.3921 64.9233 62.328 63.1732 62.328 61.1919ZM70.5291 63.0081L72.3623 70.1738H68.7281L70.5291 63.0081ZM70.0467 54.9838L69.2427 57.9227L63.9683 77.1414H66.9271L68.0205 72.8816H73.0377L74.1311 77.1414H77.09L71.8155 57.9227L71.0115 54.9838H70.0467ZM41.0053 63.0081L42.8385 70.1738H39.2043L41.0053 63.0081ZM40.5229 54.9838L34.4444 77.1414H37.4033L38.4967 72.8816H43.5139L44.6073 77.1414H47.5661L41.4877 54.9838H40.5229ZM52.4868 22.1576H54.9471V44.3153H52.4868V22.1576ZM77.5724 22.9783L83.6508 45.1359H80.692L79.5985 40.8761H74.5814L73.4879 45.1359H70.5291L76.6075 22.9783H77.5724ZM71.3492 22.1576V24.8614H63.4507V31.7197H68.0988V34.4235H63.4507V44.3153H60.6878V22.1576H71.3492ZM95.1323 22.1576V24.8614H90.7783V44.3153H88.0047V24.8614H83.6508V22.1576H95.1323ZM77.09 31.0026L75.2889 38.1683H78.9231L77.09 31.0026ZM96.7725 24.8614H101.126V44.3153H103.9V24.8614H108.254V22.1576H96.7725V24.8614ZM11.1534 22.1576V22.1906L6.9709 33.5992L2.78836 22.1906V22.1576H0V44.3153H2.78836V29.2468L6.48456 40.0288H7.45724L11.1534 29.2797V44.3153H13.9418V22.1576H11.1534ZM21.9499 38.1353L23.7831 30.9696L25.6162 38.1353H21.9499ZM27.3851 45.1359H30.3439L24.2655 22.9783H23.3007L17.2222 45.1359H20.181L21.2745 40.8761H26.2916L27.3851 45.1359ZM37.2506 28.6533L43.9398 44.3153H46.746V22.1576H43.9398V37.7867L37.2506 22.1576H34.4444V44.3153H37.2506V28.6533ZM121.012 22.9783H120.624V39.1904C120.624 40.9448 119.201 42.3743 117.454 42.3743C115.707 42.3743 114.284 40.9448 114.284 39.1904V22.9783H113.766H111.534V37.9883V39.1904C111.534 42.4718 114.187 45.1359 117.454 45.1359C120.721 45.1359 123.374 42.4718 123.374 39.1904V37.9883V22.9783H121.627H121.012ZM135.666 31.458C135.051 32.0753 134.21 32.5301 133.304 32.5301H130.264V25.7724H133.304C134.178 25.7724 135.019 26.1297 135.666 26.747C136.28 27.3643 136.636 28.2091 136.636 29.1187C136.636 29.9635 136.28 30.8082 135.666 31.458ZM139.386 29.0863C139.386 25.7074 136.668 22.9783 133.304 22.9783H130.264H129.617H127.482V44.811H130.264V35.2917H133.304C134.178 35.2917 135.019 35.7141 135.666 36.3314C136.28 36.9486 136.636 37.7934 136.636 38.7031V44.811H139.418V38.7031C139.418 36.7537 138.512 35.0318 137.089 33.8947C138.48 32.7575 139.386 31.0356 139.386 29.0863ZM148.439 31.0026L150.272 38.1683H146.638L148.439 31.0026ZM147.957 22.9783L141.878 45.1359H144.837L145.931 40.8761H150.948L152.041 45.1359H155L148.922 22.9783H147.957ZM23.7831 13.097V0H24.6638V13.097H23.7831ZM24.1093 12.2261H30.3395V13.1305H24.1093V12.2261ZM43.2568 13.097V0H44.1701V13.097H43.2568ZM58.0007 0L60.9365 11.9916L60.8386 13.097H60.3493L57.12 0H58.0007ZM63.285 0H64.1658L60.9038 13.097H60.4798L60.3167 11.9581L63.285 0ZM76.7242 13.097V0H77.6375V13.097H76.7242ZM77.3766 0H83.5416V0.904393H77.3766V0ZM77.3766 12.2261H83.5416V13.1305H77.3766V12.2261ZM77.5071 5.99579H81.4214V6.86669H77.5071V5.99579ZM107.223 13.097V0H108.137V13.097H107.223ZM121.511 0H122.391V0.636425V13.097H121.511V0ZM121.641 0.267968L122.424 0L127.317 11.6231L127.382 13.1305H127.023L121.641 0.267968ZM127.023 11.8911V0H127.937V13.097H127.023V11.8911Z" fill="black"/>
</g>
</g>
</g>
</g>
<defs>
<clipPath id="clip0_29_113">
<rect width="155" height="78"/>
</clipPath>
</defs>
</svg>
